<svg id="tomb" xmlns="http://www.w3.org/2000/svg" viewBox="0 0 1918.74 362.29"><defs><style>.cls-1{fill:#eaeaea;}.cls-2,.cls-3{fill:#fff;}.cls-3{opacity:0.79;}.cls-4{fill:#cfd1d1;}.cls-5,.cls-6{fill:#ccc;}.cls-6{opacity:0.63;}.cls-7{fill:#afafaf;}.cls-8{fill:#e2e2e2;}</style></defs><polygon class="cls-1" points="1920 362.29 0 362.29 0 188.29 1921.13 250.26 1920 362.29"/><path class="cls-2" d="M856.52,2.16l149.16-1s-1.55,1.8,0,3.35,9,0,9,0L1016,24.87l-3.61,2.06.26,7.23H1016v6.71l-3.51,1.29L1016,158.29h3.35v5.16h3.36s-2.84,2.07,0,5.68,4.13,4.9,7.48,5.68,4.39-.26,5.42,1.8,0,5.94,0,5.94h4.91v24h16v15.82l-8-.26-87.18,65.21-257.81-4.64v-5.94L724,267.46l-.87-24.21,6.69-.32v-8s-.78-2.58,4.64-4.38,6-1.27,10.07-6.45c3.61-4.65,2.58-8.52,2.58-8.52l2.66-.31.18-8,2.83-.51L751,72.87l-2.58-.52a4.24,4.24,0,0,0-.26-3.61,8.65,8.65,0,0,0-2.58-3.1V62.81l3.92-.36-.1-8.48h-4.88l0-22.91s1.29.78,5.42,0,5.16-5.42,5.16-5.42Z"/><path class="cls-3" d="M935.29,219.92c-.06-.21-.14-.41-.2-.63A1,1,0,0,0,935.29,219.92Z"/><path class="cls-4" d="M954,283.29c-6-15,5-37-8-51-3.86-3.87-6-5.8-6.11-13-.12-.15-4.85,0-4.85,0s.14.42.2.63c.3.36-.67-7.95-.67-7.95-1.53-41.8-2.91-99-4.45-140.52-.06-1.63,1.82-4.26,1.93-5.81,0-.28-2.44,0-2.44,0,0-1.46,0-6.36,0-7.74H932c-.21-14.74-.32-24-.32-24s-124,.38-186.39.38l0,19.68h4.86l.1,8.48-3.9.36v2.83a8.69,8.69,0,0,1,2.57,3.1,4.21,4.21,0,0,1,.25,3.61l2.58.52,1.79,133.94-2.82.51-.18,8-2.65.31s1,3.87-2.57,8.52c-4,5.18-4.63,4.64-10,6.45s-4.63,4.38-4.63,4.38v8l-6.65.32.86,24.21-20.43,9.28v5.94l253.74,4.59C956,286,954.39,284.79,954,283.29Z"/><polygon class="cls-5" points="931.25 68.38 929.96 71.72 939.1 67.97 939.1 69.9 953.55 64.61 953.55 66.42 957.63 64.83 957.38 61.13 967.23 56.74 967.23 60.23 983.92 53.1 983.79 50.59 991.47 47.41 991.62 49.79 1003.36 44.48 1003.36 47.39 1007.81 45.64 1007.81 36.1 991.16 42.29 991.27 45.84 983.82 48.61 983.74 45.26 966.91 51.68 967.06 54.53 957.16 58.81 956.95 55.48 939.07 61.62 939.16 65.26 931.25 68.38"/><polygon class="cls-6" points="931.61 33.13 931.61 53.97 1013.29 26.42 1012.46 28.99 931.61 57.9 931.61 33.13"/><polygon class="cls-7" points="932 65.64 904 65.64 904 63.32 931.97 63.32 932 65.64"/><rect class="cls-7" x="745.55" y="62.81" width="32" height="2.84"/><rect class="cls-5" x="744.49" y="33.91" width="187.12" height="20.06"/><polygon class="cls-5" points="935.23 218.42 749.76 215.27 749.91 208.61 935.23 210.42 935.23 218.42"/><polygon class="cls-5" points="952.26 279.32 724.09 274.16 710.97 274.53 725.68 267.71 724.09 243.21 952.26 248.35 952.26 279.32"/><polygon class="cls-5" points="960.16 201 957.3 203.19 954.32 67.97 957.13 66.68 960.16 201"/><polygon class="cls-5" points="987.74 185.13 985.03 187.47 981.16 57.13 983.97 55.84 987.74 185.13"/><polygon class="cls-5" points="1010.62 173.26 1007.77 175.32 1004.97 48.35 1007.78 47.06 1010.62 173.26"/><polygon class="cls-7" points="904 69 908.26 206.81 906.13 206.81 904 69"/><polygon class="cls-2" points="777.55 66.03 781.81 203.84 779.68 203.84 777.55 66.03"/><polygon class="cls-2" points="935.23 210.42 749.91 208.61 749.93 207.32 935.23 208.61 935.23 210.42"/><polygon class="cls-2" points="940.19 219.92 747.22 216.58 747.1 215.58 940.19 218.42 940.19 219.92"/><path class="cls-2" d="M952.26,248.35c0,.18.17,0,0,0l-228.48-5,0-1.29L952,245.12a.33.33,0,0,1,.31.32Z"/><polygon class="cls-5" points="755.87 26.42 925.68 26.42 925.68 28.23 755.87 28.23 754.58 26.42 755.87 26.42"/><rect class="cls-2" x="780.19" y="62.81" width="121.29" height="1.42"/><polygon class="cls-7" points="744.49 53.97 748.77 53.97 931.61 53.97 931.61 56.81 748.58 55.84 744.49 53.97"/><path class="cls-8" d="M864.89,200.21c-95.31-.06-2.44,1.39,10.85,2.41.52.15,27.94,3,28.26,3.89-27.36,0-79.86-.59-107.23-.55a61.7,61.7,0,0,0-8.48.36c-.52-.25-3,.29-3.52,0-1.25-2.65-.63-1.14-2-.25l-27.06.27,5-2.44c7.63.26,12.38-.14,20-.19,1,0,2.83-2.39,2.8-3.64-.28-12.78-1-25.56-1.33-38.34-.24-10.32-2.22-52.34-2-62.76.53,6.44,3.26,44.57,3.74,51,.38,5.12.54,10.27,1.07,15.38.09.86,1.62,1.52,2.38,2.37a4.6,4.6,0,0,1,1.34,2.07c.78,6.37,1.41,12.76,2.15,19.13,1,4,4.53,6.46,8.92,8.28,3,.28,6,1.68,9,1.83,5.9.31,11.83,0,17.74.11"/></svg>